# xmcd
#
# Track frame offsets:
#	150
#	16606
#	29247
#	38294
#	50254
#	63467
#	83980
#	99783
#	111613
#	124029
#	140238
#	160228
#	178398
#	188502
#	204186
#	221616
#	234675
#	249213
#	265255
#	281688
#	300661
#	313235
#	328515
#
# Disc length: 4554 seconds
#
# Revision: 3
# Processed by: cddbd v1.5.2PL0 Copyright (c) Steve Scherf et al.
# Submitted via: audiograbber 1.83.01
#
DISCID=4711c817
DTITLE=Various Artist - CDXMAS 1018 - Disc B
DYEAR=2004
DGENRE=Country
TTITLE0=Doug Wayne - Almost time for Christmas
TTITLE1=Bobby Helms - Jingle bell rock
TTITLE2=Bobby Helms - Jingle bell rock (cupid version)
TTITLE3=Johnny Paycheck - Jingle bells
TTITLE4=Johnny Paycheck - Mommy for a while on Christmas day
TTITLE5=Darrin Vincent and Jamie Dailey - Beautiful star of Bethlehem
TTITLE6=Sonya Isaacs - Mary, did you know
TTITLE7=The Geezinlaws - Lighten up it's Christmas
TTITLE8=Johnny Lee - Santa Claus is looking for love (country version)
TTITLE9=Johnny Lee - Santa Claus is looking for love (blues version)
TTITLE10=Johnny Lee - Ol' time Country Christmas
TTITLE11=Johnny Lee - Red. white and blue Christmas
TTITLE12=Johnny Lee - Bayou Christmas
TTITLE13=Vince Vance and the Valiants - Christmas just ain't Christmas without yo
TTITLE13=u
TTITLE14=Adrienne Young and Tim O'Brien - Just like Christmas
TTITLE15=Last Man Standing - Til I hear the children sing
TTITLE16=Jim Weatherly - Gimme some lovin' for Christmas
TTITLE17=Xmas Balls and Monty Lane Allen - Cajun daze of Christmas
TTITLE18=Xmas Balls and Monty Lane Allen - (All I want for Christmas is) a soldie
TTITLE18=r coming home
TTITLE19=Xmas Balls and Monty Lane Allen - She left me for Rudolph
TTITLE20=Christopher Wayne Morris - It wouldn't be Christmas without you
TTITLE21=Blake Stamper - Christmas things
TTITLE22=Jack Franzen - Last minute Christmas shopping
EXTD=
EXTT0=
EXTT1=
EXTT2=
EXTT3=
EXTT4=
EXTT5=
EXTT6=
EXTT7=
EXTT8=
EXTT9=
EXTT10=
EXTT11=
EXTT12=
EXTT13=
EXTT14=
EXTT15=
EXTT16=
EXTT17=
EXTT18=
EXTT19=
EXTT20=
EXTT21=
EXTT22=
PLAYORDER=
